<svg height="121mm" viewBox="0 0 200 121" width="200mm" xmlns="http://www.w3.org/2000/svg" xmlns:xlink="http://www.w3.org/1999/xlink"><radialGradient id="a" cx="318.32861" cy="188.7314" gradientTransform="matrix(1.4228142 -.01962464 .02530774 1.8348482 -137.73166 -112.16804)" gradientUnits="userSpaceOnUse" r="2.977918"><stop offset="0" stop-color="#ffa641"/><stop offset="1" stop-color="#a65a00" stop-opacity=".082353"/></radialGradient><linearGradient id="b" gradientUnits="userSpaceOnUse" x1="318.73904" x2="333.39188" y1="244.57683" y2="233.3196"><stop offset="0" stop-color="#b0925e"/><stop offset="1" stop-color="#b0925e" stop-opacity="0"/></linearGradient><radialGradient id="c" cx="320.12152" cy="186.55609" gradientTransform="matrix(.78056188 .00673807 -.00727415 .84266199 73.330881 67.199986)" gradientUnits="userSpaceOnUse" r="10.469793"><stop offset="0" stop-color="#0a0a0a"/><stop offset="1" stop-color="#282828" stop-opacity=".996078"/></radialGradient><g transform="translate(-170.97276 -160.41148)"><g fill="#d0b689" stroke="#000"><path d="m354.04502 242.752c-5.49381 20.28974-40.54948 15.9267-51.56926 1.86483-2.90314-4.2158-.91199-12.06899 2.23539-19.25683 9.0959-2.85406 14.42229-16.42325 18.63002-17.73844 11.70217-2.4596 33.69385 22.10133 30.70385 35.13044z" stroke-width="1.87431"/><path d="m296.31985 232.17972c-3.09033 12.20195-10.90125 19.07844-18.76617 26.10186-3.04707 1.03703-3.93568-.46439-3.57346-3.15423 7.87022-6.00232 11.7666-14.53772 15.92858-25.84787 1.17011-2.5414 6.64673-2.48958 6.41105 2.90024z" stroke-width="1.87431"/><path d="m277.91624 229.94071c-2.85964 10.81867-9.86668 16.85967-16.92306 23.03076-2.71831.89381-3.49442-.44909-3.14764-2.83693 7.05171-5.26334 10.59411-12.81513 14.39822-22.83113 1.0636-2.24844 5.93168-2.15189 5.67248 2.6373z" stroke-width="1.66629"/><path d="m259.40199 228.47845c-2.41182 9.46019-8.47846 14.78409-14.58715 20.22188-2.36461.8006-3.052-.365-2.76777-2.45082 6.11158-4.64582 9.14408-11.2612 12.38601-20.02836.91065-1.9697 5.15832-1.92279 4.96891 2.2573z" stroke-width="1.45374"/><g stroke-width="1.5953"><path d="m219.28456 237.97865c3.44877-.0551 3.83276.79222 5.0299 3.46588 4.24698 11.17918-1.40584 20.66252-5.16345 25.48208-3.81409 4.58662-7.46437 4.86183-9.57703-1.05725-.64942-9.20098.82787-15.59404-3.41754-23.31489-1.57422-2.18779-1.74241-3.6363-.58192-4.38627z"/><path d="m212.05864 223.93948c2.19643-2.65944 1.77441-3.48841.43355-6.09296-6.08015-10.2977-17.01725-11.80381-23.12807-11.87814-5.96415.11525-8.4584 2.79462-5.1542 8.14074 6.78136 6.25246 12.69737 9.09044 16.07724 17.2275.72589 2.5957 1.75229 3.63153 3.06273 3.19338z"/></g><g stroke-width="1.87431"><g><path d="m299.99712 212.82972c4.43499 5.43798.95325 9.84208-1.17794 12.77555-7.19988-2.20861-14.55902-3.38759-22.59011-2.25227-.97201-3.88576-2.69266-9.59931 2.02968-14.06029 6.94483 2.45808 14.40694 3.79357 21.73836 3.537z"/><path d="m265.81385 209.57678c4.93719 3.68835 2.90899 8.18246 1.71816 11.13583-6.60492-.3478-13.12614.21549-19.72681 2.8938-1.65602-3.10364-4.33929-7.60505-1.2662-12.4119 6.44076.61463 13.08306.16279 19.27485-1.61773z"/><path d="m234.62197 215.02821c5.08412 1.37422 4.88904 5.58327 4.87369 8.30456-5.35632 1.80485-10.35906 4.30712-14.75851 8.51451-2.29342-1.94362-5.84328-4.67391-4.91672-9.46063 5.30998-1.54119 10.44402-3.99307 14.80154-7.35844z"/></g><path d="m283.59054 203.95915c4.47878.3399 4.69862-.48864 5.37355-3.10445 1.84077-10.99975-8.56921-21.09314-15.00414-26.29561-5.14821-3.7188-11.07952-5.46745-12.04204.28463 2.16615 9.28769 6.1657 15.89983 3.19702 23.38867-1.32141 2.09148-1.06561 3.54823.68041 4.40519z"/></g></g><g fill="#b0925e"><path d="m248.99139 221.30017c4.62001-1.67062 10.61187-3.17883 16.48657-2.68099 1.33523-1.95401 2.03923-3.9773.29845-6.26895-3.6775 6.68585-10.95183 4.90342-16.72073 6.82741-1.3686.95636-.61678 1.52104-.0643 2.12253z"/><path d="m278.49161 221.149c5.56946-.45264 12.59591-.31704 18.89422 1.98508 2.04933-1.74535 3.42664-3.75539 2.20112-6.79059-6.03401 6.23822-13.48442 2.10805-20.39043 2.49538-1.78778.64052-1.13148 1.48491-.70491 2.31013z"/><path d="m224.66737 229.47185c3.23942-2.75285 7.64009-5.78933 12.55306-7.16414.49089-1.98821.4491-3.84149-1.65581-5.17222-.95718 6.53309-7.3936 7.29027-11.48768 10.59629-.81993 1.18957-.0396 1.41972.59043 1.74007z"/></g><path d="m351.04465 241.95456c-4.85879 17.94452-35.86251 14.08579-45.60855 1.64928-2.56758-3.7285-.80657-10.67397 1.97701-17.031 8.04454-2.52418 12.75527-14.52496 16.47664-15.68813 10.34956-2.1753 29.79931 19.54673 27.1549 31.06985z" fill="url(#b)"/><g fill="#b0925e"><path d="m285.04255 198.16036c2.99963 3.95416 1.11507 3.27651-.12494 3.37366l-15.3897-1.38271c-1.48562-.20598-2.09017-.30891-1.78092-1.63414 3.56491-5.88551-2.72611-21.82637-3.78774-23.48158.91065-1.00545 3.33262.94961 3.56052 2.36784 1.75549 7.14022 9.44073 23.48166 17.52278 20.75693z"/><path d="m220.77535 239.80671-11.69402.15024c-1.44405-.11862-2.2775.18639-1.89425 1.05374 5.01901 3.46544 4.11707 22.34576 4.02251 24.30173.75344 1.41069 1.99962-.44309 2.31475-1.71449-1.01153-14.06592.58866-23.66935 8.80564-21.34299 1.04186-.25707-.51307-2.2652-1.55463-2.44823z"/><path d="m204.22614 230.68745c2.25708-2.7771 6.24871-7.93527 6.24871-7.93527.54776-.6773 1.25045-1.65958 1.10142-2.31016-2.1106-6.30642-11.58559-12.85965-21.61598-12.94365-1.57465-.27962-.50457 1.05692.47817 1.02327 17.537 4.62154 17.88777 13.10121 11.93002 20.80707-.44184.97793.1428 3.11321.93045 2.40754 0 0 .63291-.6867.92721-1.0488z"/><path d="m276.41878 256.61841c-.24017.19809-.28356.9193.46686.45223 8.49282-6.88648 15.45815-15.15826 18.10771-25.14376.13147-2.20165-.89732-2.18436-2.49259.28065-2.31456 10.33301-8.73816 18.29161-16.08198 24.41088z"/><path d="m259.99962 251.48252c-.21533.17389-.26054.81461.41085.40632 7.6133-6.0436 13.88149-13.33274 16.32889-22.18512.13716-1.95598-.77756-1.95008-2.21843.22629-2.15281 9.16436-7.93652 16.18011-14.52134 21.55226z"/><path d="m243.93663 247.40899c-.18652.15334-.22105.71265.36154.35132 6.59554-5.33084 12.00804-11.73797 14.07528-19.47958.10467-1.70744-.69329-1.6953-1.93362.21442-1.80786 8.01154-6.79979 14.17644-12.50323 18.91362z"/></g><path d="m346.97075 232.29043c-1.35382 4.17402-1.46596 7.87298 2.69234 9.93741" fill="#d0b689" stroke="#000" stroke-width="1.16223"/><path d="m346.51448 234.98104c2.14815-.30288 2.86528 3.06126 2.04775 6.06986" fill="none" stroke="#000" stroke-width="1.16223"/><path d="m346.74022 235.53002c-.21217 1.65109.0216 3.47826 1.17794 4.75582.0724.16846.27437.16491.26963-.0376.21496-1.41913.30599-3.02574-.53275-4.27185-.20414-.27567-.58434-.52319-.91482-.44642z" fill="#b0925e"/><path d="m341.30589 255.24067c-12.02733-1.14206-20.16638-4.66429-24.71572-10.38393" fill="none" stroke="#000" stroke-width="1.87431"/><path d="m324.59004 217.64639c6.03308.74842 7.15098 7.47428 6.58481 12.17898-4.34803 13.19254-14.64409 7.68052-17.56932 1.16753-.64602-6.18752 5.50179-11.44197 10.98451-13.34651z" fill="url(#c)" stroke="#000" stroke-width="1.87431"/><ellipse cx="319.96719" cy="227.87834" fill="#e37b00" fill-opacity=".998432" rx="2.790777" ry="3.751545"/><ellipse cx="319.96719" cy="227.87834" fill="url(#a)" rx="4.172086" ry="5.608391"/></g></svg>